{
	"accessors": [
		{
			"bufferView": 0,
			"byteOffset": 0,
			"componentType": 5123,
			"count": 13068,
			"type": "SCALAR",
			"max": [13067],
			"min": [0]
		},
		{
			"bufferView": 1,
			"byteOffset": 0,
			"componentType": 5126,
			"count": 13068,
			"type": "VEC3",
			"max": [3.109999895095825, -1.7796000242233276, 8.199999809265137],
			"min": [-2.890000104904175, -7.779600143432617, 0.20000000298023224],
			"name": "POSITION"
		},
		{
			"bufferView": 1,
			"byteOffset": 12,
			"componentType": 5126,
			"count": 13068,
			"type": "VEC3",
			"max": [1.0000044107437134, 1.0000044107437134, 1.0000044107437134],
			"min": [-1.0000044107437134, -1.0000044107437134, -1.0000044107437134],
			"name": "NORMAL"
		},
		{
			"bufferView": 1,
			"byteOffset": 24,
			"componentType": 5126,
			"count": 13068,
			"type": "VEC2",
			"max": [7.5, 8.48543930053711],
			"min": [-7, -8.48543930053711],
			"name": "TEXCOORD_0"
		}
	],
	"asset": { "generator": "Aspose.3D 22.10", "version": "2.0" },
	"buffers": [
		{
			"uri": "data:application/octet-stream;base64,",
			"byteLength": 444320
		}
	],
	"bufferViews": [
		{ "buffer": 0, "byteOffset": 0, "byteLength": 26136, "target": 34963 },
		{ "buffer": 0, "byteOffset": 26140, "byteLength": 418176, "byteStride": 32, "target": 34962 }
	],
	"materials": [
		{
			"name": "Steel - Satin",
			"pbrMetallicRoughness": {
				"baseColorFactor": [0.6274509803921569, 0.6274509803921569, 0.6274509803921569, 1],
				"metallicFactor": 0,
				"roughnessFactor": 0
			},
			"emissiveFactor": [0, 0, 0],
			"alphaMode": "OPAQUE",
			"doubleSided": false
		}
	],
	"meshes": [
		{
			"primitives": [
				{
					"attributes": { "POSITION": 1, "NORMAL": 2, "TEXCOORD_0": 3 },
					"indices": 0,
					"material": 0,
					"mode": 4
				}
			],
			"name": "Body14"
		}
	],
	"nodes": [
		{ "matrix": [10, 0, 0, 0, 0, 10, 0, 0, 0, 0, 10, 0, 0, 0, 0, 1], "mesh": 0, "name": "Body14" },
		{ "children": [0], "name": "ServoMount" },
		{ "children": [1], "name": "ServoMount:1" },
		{ "children": [2], "name": "Sharpie v10" }
	],
	"scene": 0,
	"scenes": [{ "nodes": [3] }]
}
