{"accessors" : [{"bufferView" : 0, "byteOffset" : 0, "componentType" : 5123, "count" : 6168, "type" : "SCALAR", "max" : [6167], "min" : [0]}, {"bufferView" : 1, "byteOffset" : 0, "componentType" : 5126, "count" : 6168, "type" : "VEC3", "max" : [0.6096000075340271, 0.6096000075340271, 12.357067108154297], "min" : [-0.6096000075340271, -0.6096000075340271, 0], "name" : "POSITION"}, {"bufferView" : 1, "byteOffset" : 12, "componentType" : 5126, "count" : 6168, "type" : "VEC3", "max" : [1.0000044107437134, 1.0000044107437134, 1.0000044107437134], "min" : [-1.0000044107437134, -1.0000044107437134, -1.0000044107437134], "name" : "NORMAL"}, {"bufferView" : 1, "byteOffset" : 24, "componentType" : 5126, "count" : 6168, "type" : "VEC2", "max" : [3.905379056930542, 1.6358855962753296], "min" : [-3.905379056930542, -1.6358855962753296], "name" : "TEXCOORD_0"}, {"bufferView" : 0, "byteOffset" : 12336, "componentType" : 5123, "count" : 4776, "type" : "SCALAR", "max" : [4775], "min" : [0]}, {"bufferView" : 2, "byteOffset" : 0, "componentType" : 5126, "count" : 4776, "type" : "VEC3", "max" : [0.5, 0.5, 7], "min" : [-1.25, -2.5, 1.5], "name" : "POSITION"}, {"bufferView" : 2, "byteOffset" : 12, "componentType" : 5126, "count" : 4776, "type" : "VEC3", "max" : [1.0000044107437134, 1.0000044107437134, 1.0000044107437134], "min" : [-1.0000044107437134, -1.0000044107437134, -1.0000044107437134], "name" : "NORMAL"}, {"bufferView" : 2, "byteOffset" : 24, "componentType" : 5126, "count" : 4776, "type" : "VEC2", "max" : [7, 2.5], "min" : [-7, -7], "name" : "TEXCOORD_0"}], "asset" : {"generator" : "Aspose.3D 22.10", "version" : "2.0"}, "buffers" : [{"uri" : "data:application/octet-stream;base64,", "byteLength" : 372108}], "bufferViews" : [{"buffer" : 0, "byteOffset" : 0, "byteLength" : 21888, "target" : 34963}, {"buffer" : 0, "byteOffset" : 21892, "byteLength" : 197376, "byteStride" : 32, "target" : 34962}, {"buffer" : 0, "byteOffset" : 219272, "byteLength" : 152832, "byteStride" : 32, "target" : 34962}], "materials" : [{"name" : "ABS (White) (1)", "pbrMetallicRoughness" : {"baseColorFactor" : [0.6078431372549019, 0.6078431372549019, 0.6078431372549019, 1], "metallicFactor" : 0, "roughnessFactor" : 0}, "emissiveFactor" : [0, 0, 0], "alphaMode" : "OPAQUE", "doubleSided" : false}, {"name" : "Steel - Satin", "pbrMetallicRoughness" : {"baseColorFactor" : [0.6274509803921569, 0.6274509803921569, 0.6274509803921569, 1], "metallicFactor" : 0, "roughnessFactor" : 0}, "emissiveFactor" : [0, 0, 0], "alphaMode" : "OPAQUE", "doubleSided" : false}], "meshes" : [{"primitives" : [{"attributes" : {"POSITION" : 1, "NORMAL" : 2, "TEXCOORD_0" : 3}, "indices" : 0, "material" : 0, "mode" : 4}], "name" : "Body1"}, {"primitives" : [{"attributes" : {"POSITION" : 5, "NORMAL" : 6, "TEXCOORD_0" : 7}, "indices" : 4, "material" : 1, "mode" : 4}], "name" : "Body1"}], "nodes" : [{"matrix" : [10, 0, 0, 0, 0, 10, 0, 0, 0, 0, 10, 0, 0, 0, 0, 1], "mesh" : 0, "name" : "Body1"}, {"children" : [0], "name" : "Sharpie"}, {"children" : [1], "matrix" : [1, 0, 0, 0, 0, 1, 0, 0, 0, 0, 1, 0, 1.0999999999999999, -12.000000000000002, -7.999999999999998, 1], "name" : "Sharpie:1"}, {"matrix" : [10, 0, 0, 0, 0, 10, 0, 0, 0, 0, 10, 0, 0, 0, 0, 1], "mesh" : 1, "name" : "Body1"}, {"children" : [2, 3], "name" : "Sharpie v8"}], "scene" : 0, "scenes" : [{"nodes" : [4]}]}