{"accessors" : [{"bufferView" : 0, "byteOffset" : 0, "componentType" : 5123, "count" : 9990, "type" : "SCALAR", "max" : [9989], "min" : [0]}, {"bufferView" : 1, "byteOffset" : 0, "componentType" : 5126, "count" : 9990, "type" : "VEC3", "max" : [0.4000000059604645, -0.30000001192092896, 7.699999809265137], "min" : [-2.049999952316284, -3.450000047683716, 0.699999988079071], "name" : "POSITION"}, {"bufferView" : 1, "byteOffset" : 12, "componentType" : 5126, "count" : 9990, "type" : "VEC3", "max" : [1.0000044107437134, 1.0000044107437134, 1.0000044107437134], "min" : [-1.0000044107437134, -1.0000044107437134, -1.0000044107437134], "name" : "NORMAL"}, {"bufferView" : 1, "byteOffset" : 24, "componentType" : 5126, "count" : 9990, "type" : "VEC2", "max" : [7, 2.25], "min" : [-6.5, -1.9500000476837158], "name" : "TEXCOORD_0"}, {"bufferView" : 0, "byteOffset" : 19980, "componentType" : 5123, "count" : 13068, "type" : "SCALAR", "max" : [13067], "min" : [0]}, {"bufferView" : 2, "byteOffset" : 0, "componentType" : 5126, "count" : 13068, "type" : "VEC3", "max" : [3.109999895095825, -1.7796000242233276, 8.199999809265137], "min" : [-2.890000104904175, -7.779600143432617, 0.20000000298023224], "name" : "POSITION"}, {"bufferView" : 2, "byteOffset" : 12, "componentType" : 5126, "count" : 13068, "type" : "VEC3", "max" : [1.0000044107437134, 1.0000044107437134, 1.0000044107437134], "min" : [-1.0000044107437134, -1.0000044107437134, -1.0000044107437134], "name" : "NORMAL"}, {"bufferView" : 2, "byteOffset" : 24, "componentType" : 5126, "count" : 13068, "type" : "VEC2", "max" : [7.5, 8.48543930053711], "min" : [-7, -8.48543930053711], "name" : "TEXCOORD_0"}, {"bufferView" : 0, "byteOffset" : 46116, "componentType" : 5123, "count" : 6510, "type" : "SCALAR", "max" : [6509], "min" : [0]}, {"bufferView" : 3, "byteOffset" : 0, "componentType" : 5126, "count" : 6510, "type" : "VEC3", "max" : [-1.219599962234497, -4.48960018157959, 7.699999809265137], "min" : [-4.36959981918335, -6.939599990844727, 0.699999988079071], "name" : "POSITION"}, {"bufferView" : 3, "byteOffset" : 12, "componentType" : 5126, "count" : 6510, "type" : "VEC3", "max" : [1.0000044107437134, 1.0000044107437134, 1.0000044107437134], "min" : [-1.0000044107437134, -1.0000044107437134, -1.0000044107437134], "name" : "NORMAL"}, {"bufferView" : 3, "byteOffset" : 24, "componentType" : 5126, "count" : 6510, "type" : "VEC2", "max" : [7, 2.25], "min" : [-6.5, -1.9500000476837158], "name" : "TEXCOORD_0"}, {"bufferView" : 0, "byteOffset" : 59136, "componentType" : 5123, "count" : 6510, "type" : "SCALAR", "max" : [6509], "min" : [0]}, {"bufferView" : 4, "byteOffset" : 0, "componentType" : 5126, "count" : 6510, "type" : "VEC3", "max" : [2.2699999809265137, -6.1092000007629395, 7.699999809265137], "min" : [-0.18000000715255737, -9.259200096130371, 0.699999988079071], "name" : "POSITION"}, {"bufferView" : 4, "byteOffset" : 12, "componentType" : 5126, "count" : 6510, "type" : "VEC3", "max" : [1.0000044107437134, 1.0000044107437134, 1.0000044107437134], "min" : [-1.0000044107437134, -1.0000044107437134, -1.0000044107437134], "name" : "NORMAL"}, {"bufferView" : 4, "byteOffset" : 24, "componentType" : 5126, "count" : 6510, "type" : "VEC2", "max" : [7, 2.25], "min" : [-6.5, -1.9500000476837158], "name" : "TEXCOORD_0"}, {"bufferView" : 0, "byteOffset" : 72156, "componentType" : 5123, "count" : 6510, "type" : "SCALAR", "max" : [6509], "min" : [0]}, {"bufferView" : 5, "byteOffset" : 0, "componentType" : 5126, "count" : 6510, "type" : "VEC3", "max" : [4.589600086212158, -2.6196000576019287, 7.699999809265137], "min" : [1.4395999908447266, -5.0696001052856445, 0.699999988079071], "name" : "POSITION"}, {"bufferView" : 5, "byteOffset" : 12, "componentType" : 5126, "count" : 6510, "type" : "VEC3", "max" : [1.0000044107437134, 1.0000044107437134, 1.0000044107437134], "min" : [-1.0000044107437134, -1.0000044107437134, -1.0000044107437134], "name" : "NORMAL"}, {"bufferView" : 5, "byteOffset" : 24, "componentType" : 5126, "count" : 6510, "type" : "VEC2", "max" : [7, 2.25], "min" : [-6.5, -1.9500000476837158], "name" : "TEXCOORD_0"}], "asset" : {"generator" : "Aspose.3D 22.10", "version" : "2.0"}, "buffers" : [{"uri" : "data:application/octet-stream;base64,", "byteLength" : 1448016}], "bufferViews" : [{"buffer" : 0, "byteOffset" : 0, "byteLength" : 85176, "target" : 34963}, {"buffer" : 0, "byteOffset" : 85180, "byteLength" : 319680, "byteStride" : 32, "target" : 34962}, {"buffer" : 0, "byteOffset" : 404864, "byteLength" : 418176, "byteStride" : 32, "target" : 34962}, {"buffer" : 0, "byteOffset" : 823044, "byteLength" : 208320, "byteStride" : 32, "target" : 34962}, {"buffer" : 0, "byteOffset" : 1031368, "byteLength" : 208320, "byteStride" : 32, "target" : 34962}, {"buffer" : 0, "byteOffset" : 1239692, "byteLength" : 208320, "byteStride" : 32, "target" : 34962}], "materials" : [{"name" : "Steel - Satin", "pbrMetallicRoughness" : {"baseColorFactor" : [0.6274509803921569, 0.6274509803921569, 0.6274509803921569, 1], "metallicFactor" : 0, "roughnessFactor" : 0}, "emissiveFactor" : [0, 0, 0], "alphaMode" : "OPAQUE", "doubleSided" : false}, {"name" : "Steel - Satin", "pbrMetallicRoughness" : {"baseColorFactor" : [0.6274509803921569, 0.6274509803921569, 0.6274509803921569, 1], "metallicFactor" : 0, "roughnessFactor" : 0}, "emissiveFactor" : [0, 0, 0], "alphaMode" : "OPAQUE", "doubleSided" : false}, {"name" : "Steel - Satin", "pbrMetallicRoughness" : {"baseColorFactor" : [0.6274509803921569, 0.6274509803921569, 0.6274509803921569, 1], "metallicFactor" : 0, "roughnessFactor" : 0}, "emissiveFactor" : [0, 0, 0], "alphaMode" : "OPAQUE", "doubleSided" : false}, {"name" : "Steel - Satin", "pbrMetallicRoughness" : {"baseColorFactor" : [0.6274509803921569, 0.6274509803921569, 0.6274509803921569, 1], "metallicFactor" : 0, "roughnessFactor" : 0}, "emissiveFactor" : [0, 0, 0], "alphaMode" : "OPAQUE", "doubleSided" : false}, {"name" : "Steel - Satin", "pbrMetallicRoughness" : {"baseColorFactor" : [0.6274509803921569, 0.6274509803921569, 0.6274509803921569, 1], "metallicFactor" : 0, "roughnessFactor" : 0}, "emissiveFactor" : [0, 0, 0], "alphaMode" : "OPAQUE", "doubleSided" : false}], "meshes" : [{"primitives" : [{"attributes" : {"POSITION" : 1, "NORMAL" : 2, "TEXCOORD_0" : 3}, "indices" : 0, "material" : 0, "mode" : 4}], "name" : "Body1"}, {"primitives" : [{"attributes" : {"POSITION" : 5, "NORMAL" : 6, "TEXCOORD_0" : 7}, "indices" : 4, "material" : 1, "mode" : 4}], "name" : "Body14"}, {"primitives" : [{"attributes" : {"POSITION" : 9, "NORMAL" : 10, "TEXCOORD_0" : 11}, "indices" : 8, "material" : 2, "mode" : 4}], "name" : "Body16"}, {"primitives" : [{"attributes" : {"POSITION" : 13, "NORMAL" : 14, "TEXCOORD_0" : 15}, "indices" : 12, "material" : 3, "mode" : 4}], "name" : "Body17"}, {"primitives" : [{"attributes" : {"POSITION" : 17, "NORMAL" : 18, "TEXCOORD_0" : 19}, "indices" : 16, "material" : 4, "mode" : 4}], "name" : "Body18"}], "nodes" : [{"matrix" : [10, 0, 0, 0, 0, 10, 0, 0, 0, 0, 10, 0, 0, 0, 0, 1], "mesh" : 0, "name" : "Body1"}, {"matrix" : [10, 0, 0, 0, 0, 10, 0, 0, 0, 0, 10, 0, 0, 0, 0, 1], "mesh" : 1, "name" : "Body14"}, {"matrix" : [10, 0, 0, 0, 0, 10, 0, 0, 0, 0, 10, 0, 0, 0, 0, 1], "mesh" : 2, "name" : "Body16"}, {"matrix" : [10, 0, 0, 0, 0, 10, 0, 0, 0, 0, 10, 0, 0, 0, 0, 1], "mesh" : 3, "name" : "Body17"}, {"matrix" : [10, 0, 0, 0, 0, 10, 0, 0, 0, 0, 10, 0, 0, 0, 0, 1], "mesh" : 4, "name" : "Body18"}, {"children" : [0, 1, 2, 3, 4], "name" : "ServoMount"}, {"children" : [5], "name" : "ServoMount:1"}, {"children" : [6], "name" : "Sharpie v11"}], "scene" : 0, "scenes" : [{"nodes" : [7]}]}